<?xml version="1.0" encoding="utf-8"?>
<!-- Generator: Adobe Illustrator 24.2.1, SVG Export Plug-In . SVG Version: 6.00 Build 0)  -->
<svg version="1.1" id="Layer_1" xmlns="http://www.w3.org/2000/svg" xmlns:xlink="http://www.w3.org/1999/xlink" x="0px" y="0px"
	 viewBox="0 0 1290 1080" style="enable-background:new 0 0 1290 1080;" xml:space="preserve">
<style type="text/css">
	.st0{fill:#6D6E70;stroke:#6D6E70;stroke-width:0.75;stroke-miterlimit:10;}
	.st1{fill:#006834;}
</style>
<g>
	<g>
		<path class="st0" d="M217.3,844.4H192c-9.7,0-17.7,4.8-23.9,14.3c-6.2,9.5-9.8,22.8-10.9,39.9l-8.1,127.1
			c-1.1,17.1,0.9,30.4,5.8,39.9c5,9.5,12.3,14.3,22,14.3h25.4c9.7,0,17.7-4.8,23.9-14.3c6.2-9.5,9.8-22.8,10.9-39.9l1.1-18
			c0.2-3.4-0.7-5.1-2.6-5.1h-9.5c-2,0-3.1,1.7-3.3,5.1l-1.1,16.8c-1.3,21.2-7.9,31.9-19.8,31.9h-21.8c-11.7,0-16.9-10.6-15.5-31.9
			l7.9-124.9c1.3-21.2,7.9-31.9,19.6-31.9H214c11.8,0,17.1,10.6,15.7,31.9l-1.1,16.8c-0.2,3.4,0.7,5.1,2.6,5.1h9.5
			c2,0,3.1-1.7,3.3-5.1l1.1-18c1.1-17.1-0.9-30.4-5.8-39.9C234.4,849.2,227.1,844.4,217.3,844.4z"/>
		<path class="st0" d="M326.2,844.4h-25.2c-9.7,0-17.7,4.8-23.9,14.3c-6.2,9.5-9.8,22.8-10.9,39.9l-8.1,127.1
			c-1.1,17.1,0.9,30.4,5.8,39.9c5,9.5,12.3,14.3,22,14.3h25.2c9.7,0,17.7-4.8,23.9-14.5c6.2-9.6,9.8-22.9,10.9-39.7l8.1-127.1
			c1.1-16.8-0.9-30.1-5.8-39.7C343.3,849.2,336,844.4,326.2,844.4z M338.6,899.7l-7.9,124.9c-1.3,21.2-7.9,31.9-19.8,31.9h-21.6
			c-11.7,0-16.9-10.6-15.5-31.9l7.9-124.9c1.3-21.2,7.9-31.9,19.6-31.9h21.6C334.7,867.9,339.9,878.5,338.6,899.7z"/>
		<path class="st0" d="M438.5,844.4h-52c-2,0-3.1,1.7-3.3,5.1l-14.3,225.3c-0.2,3.4,0.6,5.1,2.6,5.1h52c9.7,0,17.7-4.8,23.9-14.5
			c6.2-9.6,9.8-22.9,10.9-39.7l8.1-127.1c1.1-16.8-0.9-30.1-5.8-39.7C455.6,849.2,448.3,844.4,438.5,844.4z M450.9,899.7l-7.9,124.9
			c-1.3,21.2-8,31.9-19.8,31.9h-35.5c-1.4,0-2-1.1-1.9-3.3l11.6-182c0.1-2.2,0.9-3.3,2.3-3.3h35.5
			C447,867.9,452.2,878.5,450.9,899.7z"/>
		<path class="st0" d="M565.2,844.4h-66.4c-2,0-3.1,1.7-3.3,5.1l-14.3,225.3c-0.2,3.4,0.6,5.1,2.6,5.1h66.4c2,0,3.1-1.7,3.3-5.1
			l0.8-13.2c0.2-3.4-0.7-5.1-2.6-5.1h-51.8c-1.4,0-2-1.1-1.9-3.3l5-78c0.1-2.2,0.9-3.3,2.3-3.3h45.3c2,0,3.1-1.7,3.3-5.1l0.8-13.2
			c0.2-3.4-0.7-5.1-2.6-5.1h-45.3c-1.4,0-2-1.1-1.9-3.3l4.7-74c0.1-2.2,0.9-3.3,2.3-3.3h51.8c2,0,3.1-1.7,3.3-5.1l0.8-13.2
			C568.1,846.1,567.2,844.4,565.2,844.4z"/>
		<path class="st0" d="M643.6,844.4H595c-2,0-3.1,1.7-3.3,5.1l-14.3,225.3c-0.2,3.4,0.6,5.1,2.6,5.1h9.5c2,0,3.1-1.7,3.3-5.1
			l5.4-85.3c0.1-2.2,0.9-3.3,2.3-3.3h27.9l18.1,88.6c0.9,3.4,2.6,5.1,5,5.1h9.5c2.7,0,3.5-2,2.5-5.9l-18.9-89l0.1-1.5
			c7-2.9,12.6-8.8,17-17.8c4.4-8.9,7-20.2,7.9-33.9l2.1-33.3c1.1-16.8-0.9-30.1-5.9-39.7C660.7,849.2,653.4,844.4,643.6,844.4z
			 M656.2,899.7l-2.1,32.6c-1.3,21-8.1,31.5-20.2,31.5H602c-1.4,0-2-1.1-1.9-3.3l5.7-89.4c0.1-2.2,0.9-3.3,2.3-3.3H640
			C652.2,867.9,657.6,878.5,656.2,899.7z"/>
		<path class="st0" d="M751.9,844.4h-48.6c-2,0-3.1,1.7-3.3,5.1l-14.3,225.3c-0.2,3.4,0.6,5.1,2.6,5.1h9.5c2,0,3.1-1.7,3.3-5.1
			l5.4-85.3c0.1-2.2,0.9-3.3,2.3-3.3h27.9l18.1,88.6c0.9,3.4,2.6,5.1,5,5.1h9.5c2.7,0,3.5-2,2.5-5.9l-18.9-89l0.1-1.5
			c7-2.9,12.6-8.8,17-17.8c4.4-8.9,7-20.2,7.9-33.9l2.1-33.3c1.1-16.8-0.9-30.1-5.9-39.7C769,849.2,761.6,844.4,751.9,844.4z
			 M764.5,899.7l-2.1,32.6c-1.3,21-8.1,31.5-20.2,31.5h-31.9c-1.4,0-2-1.1-1.9-3.3l5.7-89.4c0.1-2.2,0.9-3.3,2.3-3.3h31.9
			C760.4,867.9,765.8,878.5,764.5,899.7z"/>
		<path class="st0" d="M877.9,844.4h-66.4c-2,0-3.1,1.7-3.3,5.1l-14.3,225.3c-0.2,3.4,0.6,5.1,2.6,5.1H863c2,0,3.1-1.7,3.3-5.1
			l0.8-13.2c0.2-3.4-0.7-5.1-2.6-5.1h-51.8c-1.4,0-2-1.1-1.9-3.3l5-78c0.1-2.2,0.9-3.3,2.3-3.3h45.3c2,0,3.1-1.7,3.3-5.1l0.8-13.2
			c0.2-3.4-0.7-5.1-2.6-5.1h-45.3c-1.4,0-2-1.1-1.9-3.3l4.7-74c0.1-2.2,0.9-3.3,2.3-3.3h51.8c2,0,3.1-1.7,3.3-5.1l0.8-13.2
			C880.8,846.1,879.9,844.4,877.9,844.4z"/>
		<path class="st0" d="M959.3,844.4H934c-9.7,0-17.7,4.8-23.9,14.3c-6.2,9.5-9.8,22.8-10.9,39.9l-8.1,127.1
			c-1.1,17.1,0.9,30.4,5.8,39.9c5,9.5,12.3,14.3,22,14.3h25.4c9.7,0,17.7-4.8,23.9-14.3c6.2-9.5,9.8-22.8,10.9-39.9l1.1-18
			c0.2-3.4-0.7-5.1-2.6-5.1h-9.5c-2,0-3.1,1.7-3.3,5.1l-1.1,16.8c-1.4,21.2-7.9,31.9-19.8,31.9h-21.8c-11.7,0-16.9-10.6-15.5-31.9
			l7.9-124.9c1.3-21.2,7.9-31.9,19.6-31.9H956c11.8,0,17.1,10.6,15.7,31.9l-1.1,16.8c-0.2,3.4,0.7,5.1,2.6,5.1h9.5
			c2,0,3.1-1.7,3.3-5.1l1.1-18c1.1-17.1-0.9-30.4-5.8-39.9C976.4,849.2,969.1,844.4,959.3,844.4z"/>
		<path class="st0" d="M1080.9,844.4h-77.2c-2.1,0-3.3,1.7-3.5,5.1l-0.8,13.2c-0.2,3.4,0.7,5.1,2.8,5.1h28.8c1.4,0,2,1.1,1.9,3.3
			l-12.9,203.7c-0.2,3.4,0.7,5.1,2.6,5.1h9.5c2,0,3.1-1.7,3.3-5.1l12.9-203.7c0.1-2.2,0.9-3.3,2.3-3.3h28.8c2.1,0,3.3-1.7,3.5-5.1
			l0.8-13.2C1084,846.1,1083.1,844.4,1080.9,844.4z"/>
	</g>
	<g>
		<g>
			<polygon class="st1" points="821.4,167.7 788.6,193.5 710.9,256.8 612.8,176 612.8,-0.1 			"/>
			<polygon class="st1" points="448.3,452.5 338.8,363.6 547.4,198.4 547.4,370.2 			"/>
			<polygon class="st1" points="547.4,566.6 547.4,734.8 329.7,562.5 329.7,394.2 			"/>
			<polygon class="st1" points="830.4,198.3 830.4,371.8 732.3,452.5 621.8,362.2 730.2,276.9 820.7,205.9 			"/>
			<polygon class="st1" points="830.4,566.6 830.4,734.8 612.8,562.5 612.8,392.8 			"/>
		</g>
	</g>
</g>
</svg>
