<?xml version="1.0" encoding="UTF-8" standalone="no"?>
<svg
   xmlns:dc="http://purl.org/dc/elements/1.1/"
   xmlns:cc="http://creativecommons.org/ns#"
   xmlns:rdf="http://www.w3.org/1999/02/22-rdf-syntax-ns#"
   xmlns:svg="http://www.w3.org/2000/svg"
   xmlns="http://www.w3.org/2000/svg"
   viewBox="0 0 982.26666 389.67999"
   height="389.67999"
   width="982.26666"
   xml:space="preserve"
   id="svg2"
   version="1.1"><metadata
     id="metadata8"><rdf:RDF><cc:Work
         rdf:about=""><dc:format>image/svg+xml</dc:format><dc:type
           rdf:resource="http://purl.org/dc/dcmitype/StillImage" /></cc:Work></rdf:RDF></metadata><defs
     id="defs6" /><g
     transform="matrix(1.3333333,0,0,-1.3333333,0,389.68)"
     id="g10"><g
       transform="scale(0.1)"
       id="g12"><path
         id="path14"
         style="fill:#ed1e24;fill-opacity:1;fill-rule:nonzero;stroke:none"
         d="m 2923.95,1541.92 v 1059.47 c 0,55.9 -17.61,101.09 -52.81,135.57 -35.22,34.47 -80.77,51.72 -136.66,51.72 H 2524.33 V 1352.47 h 201.44 c 58.8,0 106.52,16.87 143.19,50.62 36.65,33.76 54.99,80.04 54.99,138.83 z m 151.35,-15.23 c 0,-90.03 -29.59,-163.88 -88.74,-221.6 -59.18,-57.7 -133.77,-86.56 -223.77,-86.56 h -389.81 v 1704.08 h 389.81 c 90.74,0 165.51,-28.85 224.31,-86.57 58.8,-57.7 88.2,-131.58 88.2,-221.58 V 1526.69" /><path
         id="path16"
         style="fill:#ed1e24;fill-opacity:1;fill-rule:nonzero;stroke:none"
         d="m 3733.4,1218.53 h -559.67 v 1704.08 h 553.15 v -133.93 h -401.8 v -635.9 h 365.86 v -136.1 h -365.86 v -664.21 h 408.32 v -133.94" /><path
         id="path18"
         style="fill:#438533;fill-opacity:1;fill-rule:nonzero;stroke:none"
         d="M 4527.62,1218.53 H 4368.66 L 4051.8,2131 l 20.69,30.49 h 270.03 v 627.19 H 3953.79 V 1218.53 h -151.34 v 1704.08 h 570.56 c 35.57,0 64.61,-11.26 87.11,-33.75 22.5,-22.51 33.75,-51.56 33.75,-87.11 v -646.79 c 0,-82.04 -55.17,-123.04 -165.51,-123.04 -10.87,0 -26.85,0.54 -47.91,1.63 -21.05,1.09 -36.3,1.63 -45.72,1.63 97.99,-271.5 195.63,-543.72 292.89,-816.65" /><path
         id="path20"
         style="fill:#438533;fill-opacity:1;fill-rule:nonzero;stroke:none"
         d="m 5312.04,1218.53 h -158.97 l -316.85,912.47 20.68,30.49 h 270.04 v 627.19 H 4738.21 V 1218.53 h -151.35 v 1704.08 h 570.57 c 35.56,0 64.61,-11.26 87.11,-33.75 22.5,-22.51 33.75,-51.56 33.75,-87.11 v -646.79 c 0,-82.04 -55.18,-123.04 -165.51,-123.04 -10.88,0 -26.86,0.54 -47.91,1.63 -21.06,1.09 -36.31,1.63 -45.72,1.63 97.98,-271.5 195.62,-543.72 292.89,-816.65" /><path
         id="path22"
         style="fill:#438533;fill-opacity:1;fill-rule:nonzero;stroke:none"
         d="m 5930.96,1218.53 h -559.67 v 1704.08 h 553.15 v -133.93 h -401.8 v -635.9 h 365.86 v -136.1 h -365.86 v -664.21 h 408.32 v -133.94" /><path
         id="path24"
         style="fill:#438533;fill-opacity:1;fill-rule:nonzero;stroke:none"
         d="m 6682.72,1339.4 c 0,-35.59 -11.62,-64.63 -34.84,-87.11 -23.25,-22.52 -52.64,-33.76 -88.21,-33.76 h -438.81 c -35.58,0 -64.62,11.24 -87.11,33.76 -22.51,22.48 -33.75,51.52 -33.75,87.11 v 1462.35 c 0,35.55 11.24,64.6 33.75,87.11 22.49,22.49 51.53,33.75 87.11,33.75 h 438.81 c 35.57,0 64.96,-11.26 88.21,-33.75 23.22,-22.51 34.84,-51.56 34.84,-87.11 V 2405.4 h -152.44 v 383.28 H 6151.35 V 1352.47 h 378.93 v 419.21 h 152.44 V 1339.4" /><path
         id="path26"
         style="fill:#438533;fill-opacity:1;fill-rule:nonzero;stroke:none"
         d="m 7366.96,2788.68 h -263.5 V 1218.53 h -151.37 v 1570.15 h -265.68 v 133.93 h 680.55 v -133.93" /><path
         id="path28"
         style="fill:#ed1e24;fill-opacity:1;fill-rule:nonzero;stroke:none"
         d="m 682.719,1339.4 c 0,-35.59 -11.621,-64.63 -34.844,-87.11 -23.242,-22.52 -52.641,-33.76 -88.195,-33.76 H 120.863 c -35.5739,0 -64.6169,11.24 -87.1091,33.76 C 11.2461,1274.77 0,1303.81 0,1339.4 v 1462.35 c 0,35.55 11.2461,64.6 33.7539,87.11 22.4922,22.49 51.5352,33.75 87.1091,33.75 H 559.68 c 35.554,0 64.953,-11.26 88.195,-33.75 23.223,-22.51 34.844,-51.56 34.844,-87.11 V 2405.4 H 530.277 v 383.28 H 151.352 V 1352.47 h 378.925 v 419.21 H 682.719 V 1339.4" /><path
         id="path30"
         style="fill:#438533;fill-opacity:1;fill-rule:nonzero;stroke:none"
         d="m 1967.42,2015.55 c 0.44,-14.12 10.84,-26.41 25.31,-28.73 16.4,-2.62 31.83,8.54 34.45,24.95 12.97,80.97 4.55,166.77 -24.97,245.69 -4,9.72 -8.41,19.28 -12.63,28.94 -4.35,9.6 -8.27,19.46 -13.79,28.46 -10.5,18.31 -20.75,36.86 -33.71,53.62 -23.62,35.25 -54.1,65.2 -85.72,93.35 -64.9,54.72 -144.54,91.64 -227.51,107.38 -83.11,14.49 -169.67,8.18 -246.39,-22.6 -12.58,-5.05 -20.62,-18.16 -18.67,-32.18 2.3,-16.52 17.55,-28.04 34.07,-25.74 l 0.55,0.08 c 36.03,5.02 71.76,7.43 107.19,5.79 l 13.25,-0.69 13.18,-1.58 c 8.77,-1.02 17.5,-2.13 26.22,-2.88 8.74,-0.69 17.23,-3.25 25.83,-4.73 8.53,-1.91 17.19,-3.04 25.56,-5.5 67.46,-17.45 130.15,-49.43 184.37,-92.44 l 19.33,-17.36 9.71,-8.63 c 3.1,-3.02 5.9,-6.34 8.87,-9.49 5.81,-6.42 11.87,-12.63 17.87,-18.91 5.91,-6.35 10.81,-13.55 16.31,-20.27 21.94,-27.04 38.94,-57.59 54.91,-88.72 29.42,-63.63 44.07,-133.98 46.38,-206.63 l 0.03,-1.18" /><path
         id="path32"
         style="fill:#438533;fill-opacity:1;fill-rule:nonzero;stroke:none"
         d="m 898.949,2054.54 c 0,341.64 277.941,619.59 619.581,619.59 341.64,0 619.59,-277.95 619.59,-619.59 0,-341.64 -277.95,-619.58 -619.59,-619.58 -341.64,0 -619.581,277.94 -619.581,619.58 z M 2730.29,334.191 l -458.18,825.849 -74.33,-41.24 -175.13,315.67 c 180.14,146.74 295.47,370.15 295.47,620.07 0,440.89 -358.7,799.59 -799.59,799.59 -440.89,0 -799.581,-358.7 -799.581,-799.59 0,-440.89 358.691,-799.58 799.581,-799.58 90.79,0 178,15.42 259.41,43.43 l 175,-315.429 -74.33,-41.242 458.18,-825.84 C 2397.08,7.21875 2534.04,-32 2642.71,28.3008 c 108.65,60.2773 147.87,197.2302 87.58,305.8902" /></g></g></svg>